<svg width="452" height="523" viewBox="0 0 452 523" fill="none" xmlns="http://www.w3.org/2000/svg">
<g filter="url(#filter0_d_10_5)">
<path d="M422.154 209.251C422.154 324.817 327.651 418.502 211.077 418.502C94.5024 418.502 0 324.817 0 209.251C0 93.6849 94.5024 0 211.077 0C327.651 0 422.154 93.6849 422.154 209.251Z" fill="url(#paint0_linear_10_5)"/>
</g>
<g filter="url(#filter1_d_10_5)">
<mask id="path-2-outside-1_10_5" maskUnits="userSpaceOnUse" x="24" y="33" width="362" height="365" fill="black">
<rect fill="white" x="24" y="33" width="362" height="365"/>
<path d="M267.51 35.55C273.51 34.95 293.01 34.65 326.01 34.65H378.21L380.01 36C382.41 37.5 383.61 39.75 383.61 42.75C383.01 46.35 380.91 49.95 377.31 53.55C367.71 63.75 356.46 69.15 343.56 69.75C340.56 69.75 337.56 70.35 334.56 71.55C330.96 73.65 326.76 77.7 321.96 83.7C310.26 98.7 299.31 120 289.11 147.6C279.51 173.7 268.86 210 257.16 256.5C253.56 271.2 250.26 282.6 247.26 290.7C234.06 323.4 212.01 349.95 181.11 370.35C175.71 373.95 170.16 377.1 164.46 379.8C145.56 389.4 126.36 394.65 106.86 395.55C90.3598 395.85 76.5598 393.15 65.4598 387.45C48.3598 378.45 36.9598 366 31.2598 350.1C27.0598 338.4 26.4598 325.05 29.4598 310.05C30.6598 304.65 33.2098 300 37.1098 296.1C41.3098 291.9 46.4098 288.3 52.4098 285.3C58.7098 282.6 64.1098 281.1 68.6098 280.8C71.6098 280.8 73.7098 281.1 74.9098 281.7C78.5098 283.5 79.5598 287.55 78.0598 293.85C75.9598 303.75 76.5598 313.8 79.8598 324C84.0598 337.5 92.7598 347.4 105.96 353.7C117.96 359.4 129.51 361.5 140.61 360C152.31 358.8 163.56 352.8 174.36 342C185.46 330.9 194.16 317.7 200.46 302.4C201.96 298.2 205.26 285.75 210.36 265.05C219.06 231.75 226.11 206.55 231.51 189.45C248.61 136.05 268.41 97.65 290.91 74.25L294.96 69.75H268.41C248.61 70.05 235.11 71.1 227.91 72.9C211.11 77.4 197.01 86.4 185.61 99.9C178.41 108.3 173.01 118.8 169.41 131.4C167.61 137.4 162.81 143.1 155.01 148.5C146.31 154.5 137.76 157.5 129.36 157.5C126.96 157.5 125.16 157.05 123.96 156.15C120.96 154.35 120.06 150.75 121.26 145.35C121.56 144.15 122.16 142.35 123.06 139.95C129.96 118.95 143.01 100.05 162.21 83.25C191.91 56.55 225.36 40.8 262.56 36C264.36 36 266.01 35.85 267.51 35.55Z"/>
</mask>
<path d="M267.51 35.55C273.51 34.95 293.01 34.65 326.01 34.65H378.21L380.01 36C382.41 37.5 383.61 39.75 383.61 42.75C383.01 46.35 380.91 49.95 377.31 53.55C367.71 63.75 356.46 69.15 343.56 69.75C340.56 69.75 337.56 70.35 334.56 71.55C330.96 73.65 326.76 77.7 321.96 83.7C310.26 98.7 299.31 120 289.11 147.6C279.51 173.7 268.86 210 257.16 256.5C253.56 271.2 250.26 282.6 247.26 290.7C234.06 323.4 212.01 349.95 181.11 370.35C175.71 373.95 170.16 377.1 164.46 379.8C145.56 389.4 126.36 394.65 106.86 395.55C90.3598 395.85 76.5598 393.15 65.4598 387.45C48.3598 378.45 36.9598 366 31.2598 350.1C27.0598 338.4 26.4598 325.05 29.4598 310.05C30.6598 304.65 33.2098 300 37.1098 296.1C41.3098 291.9 46.4098 288.3 52.4098 285.3C58.7098 282.6 64.1098 281.1 68.6098 280.8C71.6098 280.8 73.7098 281.1 74.9098 281.7C78.5098 283.5 79.5598 287.55 78.0598 293.85C75.9598 303.75 76.5598 313.8 79.8598 324C84.0598 337.5 92.7598 347.4 105.96 353.7C117.96 359.4 129.51 361.5 140.61 360C152.31 358.8 163.56 352.8 174.36 342C185.46 330.9 194.16 317.7 200.46 302.4C201.96 298.2 205.26 285.75 210.36 265.05C219.06 231.75 226.11 206.55 231.51 189.45C248.61 136.05 268.41 97.65 290.91 74.25L294.96 69.75H268.41C248.61 70.05 235.11 71.1 227.91 72.9C211.11 77.4 197.01 86.4 185.61 99.9C178.41 108.3 173.01 118.8 169.41 131.4C167.61 137.4 162.81 143.1 155.01 148.5C146.31 154.5 137.76 157.5 129.36 157.5C126.96 157.5 125.16 157.05 123.96 156.15C120.96 154.35 120.06 150.75 121.26 145.35C121.56 144.15 122.16 142.35 123.06 139.95C129.96 118.95 143.01 100.05 162.21 83.25C191.91 56.55 225.36 40.8 262.56 36C264.36 36 266.01 35.85 267.51 35.55Z" fill="#9902FD" shape-rendering="crispEdges"/>
<path d="M267.51 35.55L267.361 34.0574L267.288 34.0647L267.216 34.0791L267.51 35.55ZM378.21 34.65L379.11 33.45L378.71 33.15H378.21V34.65ZM380.01 36L379.11 37.2L379.161 37.2382L379.215 37.272L380.01 36ZM383.61 42.75L385.089 42.9966L385.11 42.8741V42.75H383.61ZM377.31 53.55L376.249 52.4893L376.233 52.5054L376.217 52.5219L377.31 53.55ZM343.56 69.75V71.25H343.595L343.629 71.2484L343.56 69.75ZM334.56 71.55L334.003 70.1573L333.9 70.1985L333.804 70.2543L334.56 71.55ZM321.96 83.7L320.788 82.763L320.783 82.7702L320.777 82.7775L321.96 83.7ZM289.11 147.6L287.703 147.08L287.702 147.082L289.11 147.6ZM257.16 256.5L255.705 256.134L255.703 256.143L257.16 256.5ZM247.26 290.7L248.651 291.261L248.659 291.241L248.666 291.221L247.26 290.7ZM181.11 370.35L180.283 369.098L180.278 369.102L181.11 370.35ZM164.46 379.8L163.818 378.444L163.799 378.453L163.78 378.463L164.46 379.8ZM106.86 395.55L106.887 397.05L106.908 397.049L106.929 397.048L106.86 395.55ZM65.4598 387.45L64.7612 388.777L64.7678 388.781L64.7746 388.784L65.4598 387.45ZM31.2598 350.1L32.6718 349.594L32.6716 349.593L31.2598 350.1ZM29.4598 310.05L27.9955 309.725L27.992 309.74L27.9889 309.756L29.4598 310.05ZM37.1098 296.1L36.0491 295.039V295.039L37.1098 296.1ZM52.4098 285.3L51.8189 283.921L51.7784 283.939L51.7389 283.958L52.4098 285.3ZM68.6098 280.8V279.3H68.5598L68.51 279.303L68.6098 280.8ZM74.9098 281.7L75.5806 280.358L74.9098 281.7ZM78.0598 293.85L76.6006 293.503L76.5963 293.521L76.5924 293.539L78.0598 293.85ZM79.8598 324L81.2921 323.554L81.2895 323.546L81.2869 323.538L79.8598 324ZM105.96 353.7L105.314 355.054L105.316 355.055L105.96 353.7ZM140.61 360L140.457 358.508L140.433 358.51L140.409 358.514L140.61 360ZM174.36 342L175.42 343.061V343.061L174.36 342ZM200.46 302.4L201.847 302.971L201.86 302.938L201.872 302.905L200.46 302.4ZM210.36 265.05L208.908 264.671L208.906 264.681L208.903 264.691L210.36 265.05ZM231.51 189.45L230.081 188.993L230.079 188.998L231.51 189.45ZM290.91 74.25L291.991 75.2896L292.008 75.2718L292.025 75.2534L290.91 74.25ZM294.96 69.75L296.075 70.7534L298.328 68.25H294.96V69.75ZM268.41 69.75V68.25H268.398L268.387 68.2502L268.41 69.75ZM227.91 72.9L227.546 71.4448L227.534 71.4478L227.522 71.451L227.91 72.9ZM185.61 99.9L186.749 100.876L186.756 100.868L185.61 99.9ZM169.41 131.4L170.847 131.831L170.849 131.822L170.852 131.812L169.41 131.4ZM155.01 148.5L155.861 149.735L155.864 149.733L155.01 148.5ZM123.96 156.15L124.86 154.95L124.798 154.904L124.732 154.864L123.96 156.15ZM121.26 145.35L119.805 144.986L119.8 145.005L119.795 145.025L121.26 145.35ZM123.06 139.95L124.464 140.477L124.475 140.448L124.485 140.418L123.06 139.95ZM162.21 83.25L163.198 84.3788L163.205 84.3722L163.213 84.3655L162.21 83.25ZM262.56 36V34.5H262.463L262.368 34.5123L262.56 36ZM267.51 35.55L267.659 37.0425C273.565 36.452 292.967 36.15 326.01 36.15V34.65V33.15C293.053 33.15 273.455 33.448 267.361 34.0574L267.51 35.55ZM326.01 34.65V36.15H378.21V34.65V33.15H326.01V34.65ZM378.21 34.65L377.31 35.85L379.11 37.2L380.01 36L380.91 34.8L379.11 33.45L378.21 34.65ZM380.01 36L379.215 37.272C381.145 38.4786 382.11 40.2297 382.11 42.75H383.61H385.11C385.11 39.2703 383.674 36.5214 380.805 34.728L380.01 36ZM383.61 42.75L382.13 42.5034C381.598 45.6947 379.713 49.0255 376.249 52.4893L377.31 53.55L378.37 54.6107C382.107 50.8744 384.421 47.0053 385.089 42.9966L383.61 42.75ZM377.31 53.55L376.217 52.5219C366.86 62.4647 355.966 67.6713 343.49 68.2516L343.56 69.75L343.629 71.2484C356.953 70.6287 368.56 65.0352 378.402 54.578L377.31 53.55ZM343.56 69.75V68.25C340.355 68.25 337.166 68.8919 334.003 70.1573L334.56 71.55L335.117 72.9427C337.953 71.8081 340.765 71.25 343.56 71.25V69.75ZM334.56 71.55L333.804 70.2543C329.962 72.4954 325.623 76.7194 320.788 82.763L321.96 83.7L323.131 84.6371C327.896 78.6806 331.957 74.8046 335.316 72.8457L334.56 71.55ZM321.96 83.7L320.777 82.7775C308.945 97.9468 297.93 119.405 287.703 147.08L289.11 147.6L290.517 148.12C300.689 120.595 311.575 99.4532 323.143 84.6226L321.96 83.7ZM289.11 147.6L287.702 147.082C278.075 173.255 267.41 209.614 255.705 256.134L257.16 256.5L258.614 256.866C270.309 210.386 280.944 174.145 290.518 148.118L289.11 147.6ZM257.16 256.5L255.703 256.143C252.108 270.822 248.824 282.158 245.853 290.179L247.26 290.7L248.666 291.221C251.696 283.042 255.012 271.578 258.617 256.857L257.16 256.5ZM247.26 290.7L245.869 290.139C232.789 322.542 210.943 348.857 180.283 369.098L181.11 370.35L181.936 371.602C213.077 351.043 235.331 324.258 248.651 291.261L247.26 290.7ZM181.11 370.35L180.278 369.102C174.937 372.663 169.45 375.776 163.818 378.444L164.46 379.8L165.102 381.156C170.87 378.424 176.483 375.237 181.942 371.598L181.11 370.35ZM164.46 379.8L163.78 378.463C145.054 387.975 126.06 393.162 106.791 394.052L106.86 395.55L106.929 397.048C126.659 396.138 146.066 390.825 165.139 381.137L164.46 379.8ZM106.86 395.55L106.832 394.05C90.5031 394.347 76.9652 391.672 66.145 386.116L65.4598 387.45L64.7746 388.784C76.1543 394.628 90.2165 397.353 106.887 397.05L106.86 395.55ZM65.4598 387.45L66.1584 386.123C49.3393 377.27 38.2268 365.089 32.6718 349.594L31.2598 350.1L29.8478 350.606C35.6927 366.911 47.3803 379.63 64.7612 388.777L65.4598 387.45ZM31.2598 350.1L32.6716 349.593C28.5828 338.203 27.9718 325.138 30.9306 310.344L29.4598 310.05L27.9889 309.756C24.9477 324.962 25.5367 338.597 29.848 350.607L31.2598 350.1ZM29.4598 310.05L30.924 310.375C32.0624 305.253 34.4728 300.858 38.1704 297.161L37.1098 296.1L36.0491 295.039C31.9468 299.142 29.2572 304.047 27.9955 309.725L29.4598 310.05ZM37.1098 296.1L38.1704 297.161C42.2427 293.088 47.2064 289.579 53.0806 286.642L52.4098 285.3L51.7389 283.958C45.6132 287.021 40.3768 290.712 36.0491 295.039L37.1098 296.1ZM52.4098 285.3L53.0006 286.679C59.2172 284.014 64.4427 282.581 68.7095 282.297L68.6098 280.8L68.51 279.303C63.7769 279.619 58.2023 281.186 51.8189 283.921L52.4098 285.3ZM68.6098 280.8V282.3C71.5966 282.3 73.3808 282.613 74.239 283.042L74.9098 281.7L75.5806 280.358C74.0387 279.587 71.6229 279.3 68.6098 279.3V280.8ZM74.9098 281.7L74.239 283.042C75.6342 283.739 76.5241 284.84 76.9453 286.464C77.3842 288.157 77.3221 290.472 76.6006 293.503L78.0598 293.85L79.519 294.197C80.2975 290.928 80.4604 288.068 79.8493 285.711C79.2204 283.285 77.7853 281.461 75.5806 280.358L74.9098 281.7ZM78.0598 293.85L76.5924 293.539C74.4347 303.711 75.0568 314.027 78.4326 324.462L79.8598 324L81.2869 323.538C78.0628 313.573 77.4848 303.789 79.5271 294.161L78.0598 293.85ZM79.8598 324L78.4275 324.446C82.7564 338.36 91.7513 348.581 105.314 355.054L105.96 353.7L106.606 352.346C93.7682 346.219 85.3632 336.64 81.2921 323.554L79.8598 324ZM105.96 353.7L105.316 355.055C117.529 360.856 129.372 363.032 140.811 361.486L140.61 360L140.409 358.514C129.647 359.968 118.39 357.944 106.603 352.345L105.96 353.7ZM140.61 360L140.763 361.492C152.897 360.248 164.45 354.031 175.42 343.061L174.36 342L173.299 340.939C162.669 351.569 151.722 357.352 140.457 358.508L140.61 360ZM174.36 342L175.42 343.061C186.668 331.813 195.476 318.444 201.847 302.971L200.46 302.4L199.073 301.829C192.844 316.956 184.252 329.987 173.299 340.939L174.36 342ZM200.46 302.4L201.872 302.905C203.404 298.615 206.725 286.072 211.816 265.409L210.36 265.05L208.903 264.691C203.794 285.428 200.515 297.785 199.047 301.895L200.46 302.4ZM210.36 265.05L211.811 265.429C220.509 232.136 227.552 206.965 232.94 189.902L231.51 189.45L230.079 188.998C224.668 206.135 217.61 231.364 208.908 264.671L210.36 265.05ZM231.51 189.45L232.938 189.907C250.012 136.589 269.726 98.4454 291.991 75.2896L290.91 74.25L289.829 73.2103C267.094 96.8546 247.207 135.511 230.081 188.993L231.51 189.45ZM290.91 74.25L292.025 75.2534L296.075 70.7534L294.96 69.75L293.845 68.7466L289.795 73.2466L290.91 74.25ZM294.96 69.75V68.25H268.41V69.75V71.25H294.96V69.75ZM268.41 69.75L268.387 68.2502C248.602 68.5499 234.937 69.5971 227.546 71.4448L227.91 72.9L228.274 74.3552C235.283 72.6029 248.618 71.55 268.432 71.2498L268.41 69.75ZM227.91 72.9L227.522 71.451C210.421 76.0316 196.058 85.2022 184.464 98.9322L185.61 99.9L186.756 100.868C197.962 87.5978 211.799 78.7683 228.298 74.3489L227.91 72.9ZM185.61 99.9L184.471 98.9238C177.107 107.515 171.616 118.218 167.967 130.988L169.41 131.4L170.852 131.812C174.404 119.382 179.713 109.085 186.749 100.876L185.61 99.9ZM169.41 131.4L167.973 130.969C166.31 136.513 161.814 141.965 154.156 147.267L155.01 148.5L155.864 149.733C163.806 144.235 168.91 138.287 170.847 131.831L169.41 131.4ZM155.01 148.5L154.158 147.265C145.644 153.137 137.385 156 129.36 156V157.5V159C138.134 159 146.976 155.863 155.861 149.735L155.01 148.5ZM129.36 157.5V156C127.104 156 125.686 155.569 124.86 154.95L123.96 156.15L123.06 157.35C124.634 158.531 126.816 159 129.36 159V157.5ZM123.96 156.15L124.732 154.864C122.586 153.576 121.569 150.874 122.724 145.675L121.26 145.35L119.795 145.025C118.551 150.626 119.334 155.124 123.188 157.436L123.96 156.15ZM121.26 145.35L122.715 145.714C122.993 144.601 123.568 142.867 124.464 140.477L123.06 139.95L121.655 139.423C120.752 141.833 120.126 143.699 119.805 144.986L121.26 145.35ZM123.06 139.95L124.485 140.418C131.289 119.711 144.168 101.03 163.198 84.3788L162.21 83.25L161.222 82.1211C141.851 99.0704 128.631 118.189 121.635 139.482L123.06 139.95ZM162.21 83.25L163.213 84.3655C192.702 57.855 225.873 42.2461 262.752 37.4877L262.56 36L262.368 34.5123C224.846 39.3539 191.118 55.2449 161.207 82.1345L162.21 83.25ZM262.56 36V37.5C264.442 37.5 266.192 37.3433 267.804 37.0208L267.51 35.55L267.216 34.0791C265.828 34.3567 264.278 34.5 262.56 34.5V36Z" fill="black" fill-opacity="0.49" mask="url(#path-2-outside-1_10_5)"/>
</g>
<defs>
<filter id="filter0_d_10_5" x="0" y="0" width="434.154" height="431.502" filterUnits="userSpaceOnUse" color-interpolation-filters="sRGB">
<feFlood flood-opacity="0" result="BackgroundImageFix"/>
<feColorMatrix in="SourceAlpha" type="matrix" values="0 0 0 0 0 0 0 0 0 0 0 0 0 0 0 0 0 0 127 0" result="hardAlpha"/>
<feOffset dx="8" dy="9"/>
<feGaussianBlur stdDeviation="2"/>
<feComposite in2="hardAlpha" operator="out"/>
<feColorMatrix type="matrix" values="0 0 0 0 0 0 0 0 0 0 0 0 0 0 0 0 0 0 0.1 0"/>
<feBlend mode="normal" in2="BackgroundImageFix" result="effect1_dropShadow_10_5"/>
<feBlend mode="normal" in="SourceGraphic" in2="effect1_dropShadow_10_5" result="shape"/>
</filter>
<filter id="filter1_d_10_5" x="22.0848" y="33.15" width="367.025" height="371.922" filterUnits="userSpaceOnUse" color-interpolation-filters="sRGB">
<feFlood flood-opacity="0" result="BackgroundImageFix"/>
<feColorMatrix in="SourceAlpha" type="matrix" values="0 0 0 0 0 0 0 0 0 0 0 0 0 0 0 0 0 0 127 0" result="hardAlpha"/>
<feOffset dy="4"/>
<feGaussianBlur stdDeviation="2"/>
<feComposite in2="hardAlpha" operator="out"/>
<feColorMatrix type="matrix" values="0 0 0 0 0 0 0 0 0 0 0 0 0 0 0 0 0 0 0.25 0"/>
<feBlend mode="normal" in2="BackgroundImageFix" result="effect1_dropShadow_10_5"/>
<feBlend mode="normal" in="SourceGraphic" in2="effect1_dropShadow_10_5" result="shape"/>
</filter>
<linearGradient id="paint0_linear_10_5" x1="79.7771" y1="471.227" x2="338.736" y2="-54.5178" gradientUnits="userSpaceOnUse">
<stop stop-color="#FF4DC4"/>
<stop offset="1" stop-color="#FFD4FE"/>
</linearGradient>
</defs>
</svg>
